Coordinates
version=1
nRows=26
nColumns=24
inDegrees=yes

Units are S.I. units (second, meters, Newtons, ...)
Angles are in degrees.

endheader
time	pelvis_tilt	pelvis_list	pelvis_rotation	pelvis_tx	pelvis_ty	pelvis_tz	hip_flexion_r	hip_adduction_r	hip_rotation_r	knee_angle_r	ankle_angle_r	subtalar_angle_r	mtp_angle_r	hip_flexion_l	hip_adduction_l	hip_rotation_l	knee_angle_l	ankle_angle_l	subtalar_angle_l	mtp_angle_l	lumbar_extension	lumbar_bending	lumbar_rotation
      1.27000000	     16.30486620	      5.54284783	      2.41491287	     -0.52531500	      0.91487806	      0.26394297	      8.82318941	     -3.91963474	     -4.87422621	     -7.95829520	     10.51197961	      3.04235287	     45.62439926	    -33.70102010	      5.96120014	     -4.44758744	    -12.84669335	     31.00015457	     16.74552458	     16.13799204	    -33.01215123	     -3.22444539	     -5.45857511
      1.27500000	     16.43508802	      5.44344578	      2.54459466	     -0.51762710	      0.91398736	      0.26429213	      8.80787445	     -3.72703271	     -4.50223858	     -8.76349082	     10.59519518	      2.81981305	     45.58151891	    -34.04368593	      5.64606665	     -4.48262716	    -13.45959766	     31.00478109	     17.05117963	     16.39594276	    -33.06088772	     -3.01381788	     -5.67063553
      1.28000000	     16.48474961	      5.34185204	      2.53578406	     -0.50991197	      0.91292623	      0.26481328	      8.94754713	     -3.49655258	     -4.00558349	     -9.75728380	     10.70229054	      2.64034564	     45.53029991	    -34.27872728	      5.41782031	     -4.60807204	    -14.10573305	     30.93354590	     17.24135075	     17.00474464	    -33.00453777	     -2.89029086	     -5.62830469
      1.28500000	     16.59765403	      5.17439084	      2.61159613	     -0.50204125	      0.91197268	      0.26516516	      8.99582327	     -3.19623628	     -3.82530817	    -10.82072712	     10.07911088	      2.30005005	     47.28984792	    -34.59506592	      5.08881684	     -4.67878185	    -14.72795540	     30.68354047	     17.28953653	     19.33883042	    -33.00180724	     -2.63133174	     -5.66937300
      1.29000000	     16.64509311	      5.08462736	      2.77240067	     -0.49451785	      0.91107576	      0.26540731	      9.20864980	     -3.00088271	     -3.88012773	    -12.10112190	      8.22742436	      1.50823913	     49.27295960	    -34.72720273	      4.78277126	     -4.57307425	    -15.52824790	     30.47864407	     17.37002718	     20.91222956	    -32.97735915	     -2.40982477	     -5.80597675
      1.29500000	     16.55440288	      4.93224020	      2.84968719	     -0.48705558	      0.91015801	      0.26567987	      9.65034998	     -2.74895818	     -3.76344000	    -13.52924274	      6.06074324	      0.37403102	     49.13907992	    -34.65049842	      4.49506910	     -4.47495492	    -16.43543841	     30.37434453	     17.37508847	     21.22331760	    -32.80465327	     -2.16202243	     -5.85733539
      1.30000000	     16.44171538	      4.72067685	      2.85710981	     -0.47969300	      0.90934494	      0.26600861	     10.13575186	     -2.45384374	     -3.43144711	    -14.97336901	      4.69849808	     -0.49960154	     49.86842447	    -34.54965912	      4.20531837	     -4.42002341	    -17.28322440	     29.93516590	     17.28775147	     23.99803736	    -32.60763353	     -1.90307163	     -5.77971484
      1.30500000	     16.30783651	      4.56258879	      2.91009630	     -0.47239193	      0.90865918	      0.26621841	     10.65907155	     -2.26643099	     -3.23926321	    -16.46635913	      4.62930282	     -0.63918963	     50.46761839	    -34.35413511	      3.97798889	     -4.08127719	    -18.27021326	     29.52303384	     16.87199954	     25.50496430	    -32.40458603	     -1.66535534	     -5.71200936
      1.31000000	     16.16817273	      4.39740438	      3.00470766	     -0.46491625	      0.90817499	      0.26635476	     11.16096912	     -2.09601236	     -3.20002498	    -17.94187038	      5.12664096	     -0.34965782	     51.38618766	    -34.09134926	      3.72003622	     -3.80177838	    -19.36737062	     29.05060891	     16.54874694	     27.49191024	    -32.18877497	     -1.39823275	     -5.71585775
      1.31500000	     16.07942890	      4.18495033	      2.97357406	     -0.45754310	      0.90779809	      0.26688815	     11.62629219	     -1.81354912	     -2.94096207	    -19.39665366	      5.58759857	     -0.60713003	     51.09941947	    -33.86816477	      3.47061746	     -3.68795286	    -20.45005383	     28.45246893	     16.20539599	     29.37303751	    -32.03372137	     -1.14817527	     -5.54718535
      1.32000000	     15.90390852	      3.96478359	      2.96798187	     -0.45009602	      0.90740367	      0.26736862	     12.20188234	     -1.54603116	     -2.76411072	    -20.94563943	      5.98256846	     -1.29429368	     50.66074373	    -33.41501901	      3.19460131	     -3.62490412	    -21.81102717	     27.94485424	     16.01012078	     30.21000872	    -31.78684251	     -0.89469000	     -5.41182969
      1.32500000	     15.89102737	      3.74848270	      3.12114099	     -0.44261861	      0.90740256	      0.26744906	     12.51682793	     -1.35412591	     -2.88368972	    -22.46941797	      6.55335175	     -1.58350773	     48.07875361	    -33.08621230	      2.86194022	     -3.35050688	    -23.20707025	     27.00806254	     15.37188970	     33.86521031	    -31.71202443	     -0.52588558	     -5.41558660
      1.33000000	     15.84155509	      3.55411408	      3.23638273	     -0.43518447	      0.90740436	      0.26764655	     12.83037446	     -1.13708621	     -2.85169184	    -23.93137893	      7.33771723	     -1.75290047	     45.87283701	    -32.65328245	      2.56983101	     -3.12288437	    -24.70736609	     26.06287549	     14.81238433	     36.41849680	    -31.59779693	     -0.20700044	     -5.41783001
      1.33500000	     15.87294934	      3.35095504	      3.35969105	     -0.42776549	      0.90776929	      0.26784510	     12.92947049	     -0.87477195	     -2.83674611	    -25.16482198	      8.09540298	     -1.68049982	     44.31231304	    -32.20771082	      2.23990678	     -3.01708266	    -26.34832366	     25.07573584	     14.36979335	     38.86542340	    -31.56998646	      0.13511404	     -5.43459128
      1.34000000	     15.80314965	      3.11604480	      3.47416106	     -0.42033084	      0.90796753	      0.26807538	     13.06687341	     -0.56619765	     -2.77965645	    -26.25891298	      8.89395930	     -1.32322729	     42.61546164	    -31.53701331	      1.88557027	     -2.96987890	    -28.17354822	     23.96064895	     13.90327921	     41.68591815	    -31.43705568	      0.49236039	     -5.38011311
      1.34500000	     15.79601924	      2.83354133	      3.56584475	     -0.41295989	      0.90841997	      0.26854461	     13.02474451	     -0.16753193	     -2.68062275	    -27.10214366	      9.52133443	     -1.04122557	     40.92655632	    -30.80085332	      1.42538716	     -3.14685878	    -30.18905812	     22.61765106	     13.67693071	     44.62034093	    -31.39123388	      0.86953578	     -5.26712367
      1.35000000	     15.72399953	      2.63558119	      3.70694500	     -0.40578559	      0.90881897	      0.26890497	     13.00339289	      0.13787562	     -2.58272215	    -27.82471301	     10.09125491	     -1.02672205	     39.59493889	    -29.91372245	      1.06120635	     -3.06856038	    -32.27336237	     21.12178180	     13.17264794	     47.64525300	    -31.29035255	      1.18441931	     -5.29229986
      1.35500000	     15.63235709	      2.38656004	      3.86872169	     -0.39860009	      0.90927076	      0.26922946	     12.90832097	      0.50413454	     -2.55134151	    -28.36914510	     10.60776072	     -1.30739206	     38.32829142	    -28.88127378	      0.60916237	     -3.10255605	    -34.51559117	     19.45120592	     12.72241184	     50.83820929	    -31.15156367	      1.55793731	     -5.32189554
      1.36000000	     15.49544910	      2.12482574	      4.03635679	     -0.39164627	      0.90960433	      0.26974746	     12.80588968	      0.89416297	     -2.61037080	    -28.77910485	     11.05557079	     -1.64676797	     36.83663704	    -27.67561894	      0.10697343	     -3.17678917	    -36.90709953	     17.71981688	     12.36800761	     53.56160022	    -30.99946518	      1.92703920	     -5.33148312
      1.36500000	     15.24172999	      1.87768317	      4.26295511	     -0.38481505	      0.90975130	      0.27019881	     12.79107667	      1.23734900	     -2.80386802	    -29.10752716	     11.54502782	     -1.77285601	     35.44040278	    -26.26656042	     -0.37057979	     -3.07151704	    -39.36703387	     15.75826701	     11.77912541	     56.23989144	    -30.71532534	      2.30276459	     -5.39764434
      1.37000000	     14.88821879	      1.64595207	      4.53752576	     -0.37804916	      0.90975666	      0.27051028	     12.84598209	      1.55566863	     -2.97696690	    -29.37366465	     12.08913612	     -1.84502583	     33.94031706	    -24.65365805	     -0.81016246	     -2.82140787	    -41.94659263	     13.86841689	     11.07947197	     58.63977228	    -30.33000575	      2.67685421	     -5.50169537
      1.37500000	     14.52813111	      1.35781921	      4.86318647	     -0.37151626	      0.90974987	      0.27076878	     12.84915604	      1.95462402	     -3.07041718	    -29.46392665	     12.42188685	     -2.19452980	     33.62715062	    -22.95959263	     -1.31312146	     -2.48663025	    -44.58512368	     12.36267843	     10.68361158	     58.84764106	    -29.95712528	      3.12733344	     -5.62921449
      1.38000000	     14.08335234	      1.00968580	      5.19071802	     -0.36501421	      0.90963501	      0.27093183	     12.95936397	      2.39685703	     -3.18358195	    -29.56797586	     12.80800592	     -2.45288872	     32.97196302	    -21.17265018	     -1.81011285	     -2.07004496	    -47.18381839	     11.50459403	     10.15252307	     58.83074003	    -29.48178604	      3.63715313	     -5.70407096
      1.38500000	     13.73027296	      0.72695060	      5.54142282	     -0.35857211	      0.90964888	      0.27085917	     12.95375002	      2.74677501	     -3.33638366	    -29.67097381	     13.43236834	     -2.58357202	     30.42532998	    -19.52719916	     -2.18452221	     -1.54634728	    -49.66377693	     11.22751292	      9.46027647	     55.64609456	    -29.09447339	      4.10295289	     -5.86711806
      1.39000000	     13.34499204	      0.37811395	      5.90016349	     -0.35218715	      0.90970023	      0.27066990	     12.96175527	      3.14519944	     -3.51020870	    -29.68110844	     13.83063115	     -2.83798110	     29.48767599	    -17.85774769	     -2.53290399	     -0.88695189	    -52.08847350	     11.22243100	      8.43871846	     51.77098451	    -28.67499311	      4.65025681	     -5.92261763
      1.39500000	     12.98490607	      0.07295011	      6.25235265	     -0.34588224	      0.90987650	      0.27040376	     12.93074185	      3.47669501	     -3.69200731	    -29.67244794	     14.15277278	     -2.99028855	     29.24767468	    -16.23261026	     -2.78268501	     -0.21694374	    -54.38095440	     11.49243111	      7.12816610	     51.00403419	    -28.27254864	      5.15705305	     -6.00090913
